<svg version="1.0" xmlns="http://www.w3.org/2000/svg"
 width="100%" height="100%" viewBox="0 0 1254.000000 1254.000000"
 preserveAspectRatio="xMidYMid meet">
  <style>
    .bg {
      fill: #ffffff; /* Always white background */
    }
    .bracket, .letter {
      fill: hsl(200, 20%, 8%); /* Always dark slate */
    }
    .triangle {
      fill: #ef4444; /* Always red triangle */
    }
  </style>
  <rect class="bg" x="0" y="0" width="1254" height="1254" rx="250" />
  <g transform="translate(125.400000,1128.600000) scale(0.080000,-0.080000)" stroke="none">
    <path class="letter" d="M5495 9686 c-697 -599 -683 -586 -705 -665 -6 -24 -10 -772 -10 -2176 1 -1999 2 -2142 18 -2172 9 -17 154 -165 322 -329 399 -389 705 -690 1026 -1006 144 -142 273 -262 288 -268 18 -6 220 -10 562 -10 452 0 539 2 564 15 15 8 158 173 316 367 158 194 306 376 329 403 157 189 175 214 175 249 0 48 -8 65 -41 81 -24 13 -161 15 -956 15 -1008 0 -1011 1 -1112 56 -28 15 -106 84 -184 163 -144 145 -174 190 -214 326 -17 57 -18 201 -23 2644 -3 1738 -8 2585 -15 2588 -6 2 -159 -125 -340 -281z"/>
    <path class="bracket" transform="translate(-500, 0)" d="M3550 7514 c-245 -191 -515 -401 -600 -468 -85 -67 -309 -242 -497 -389 -312 -244 -343 -271 -354 -307 -23 -76 -6 -104 133 -212 277 -215 1130 -878 1363 -1059 384 -299 398 -309 433 -309 21 0 35 7 42 19 14 27 13 409 -1 449 -8 23 -99 102 -377 326 -916 737 -882 708 -882 746 0 15 8 37 18 48 16 19 219 177 912 714 162 126 305 243 318 260 21 30 22 38 22 260 0 139 -4 237 -10 249 -7 13 -21 19 -43 19 -27 0 -103 -56 -477 -346z"/>
    <path class="bracket" transform="translate(500, 0)" d="M8472 7848 c-17 -17 -16 -497 1 -519 7 -8 113 -92 237 -185 124 -94 322 -244 440 -334 118 -89 302 -228 407 -307 106 -79 198 -153 204 -164 8 -15 8 -28 -1 -47 -7 -16 -122 -116 -273 -237 -490 -393 -972 -787 -999 -816 l-28 -29 0 -208 c0 -226 1 -232 55 -232 31 0 87 42 985 745 140 109 404 314 585 454 182 140 335 262 342 271 20 25 26 76 13 114 -10 31 -84 93 -533 444 -523 409 -930 726 -1214 945 -154 118 -190 136 -221 105z"/>
    <path class="triangle" d="M4780 3676 l0 -616 630 0 c347 0 630 1 630 3 0 6 -1242 1222 -1251 1225 -5 2 -9 -273 -9 -612z"/>
  </g>
</svg>
